<svg width="480" height="480" viewBox="0 0 480 480" fill="none" xmlns="http://www.w3.org/2000/svg">
<path fill-rule="evenodd" clip-rule="evenodd" d="M238.559 219.569C231.649 215.043 220.313 204.939 211.31 214.631C203.936 222.541 206.223 231.388 206.687 238.798C207.11 245.153 210.349 254.756 213.078 259.733C215.619 264.365 220.967 272.003 225.892 275.022C232.024 278.808 240.315 284.265 250.914 281.785C261.368 279.34 259.148 267.823 259.279 260.214C259.354 253.484 254.299 241.174 251.569 236.197C249.114 231.721 243.34 222.702 238.559 219.569Z" fill="url(#paint0_linear_401_506)"/>
<path fill-rule="evenodd" clip-rule="evenodd" d="M325.835 186.756C319.353 182.51 308.719 173.032 300.272 182.123C293.356 189.544 295.501 197.844 295.936 204.794C296.333 210.757 299.371 219.764 301.932 224.433C304.315 228.779 309.332 235.944 313.952 238.776C319.705 242.328 327.482 247.447 337.426 245.12C347.232 242.827 345.15 232.023 345.273 224.885C345.343 218.571 340.601 207.023 338.04 202.354C335.737 198.156 330.32 189.695 325.835 186.756Z" fill="url(#paint1_linear_401_506)"/>
<path fill-rule="evenodd" clip-rule="evenodd" d="M81.5411 295.025C77.4514 292.976 75.3664 284.324 74.8451 280.025C73.8027 271.416 73.2415 265.699 74.0033 252.793C74.0835 250.906 75.0054 243.12 75.8875 237.816C76.2884 235.213 77.0104 233.038 76.81 232.563C74.6448 227.273 70.1141 238.194 68.39 235.254C65.8239 230.954 67.1068 223.881 69.8333 219.853C71.1163 217.933 73.9631 216.123 76.7297 213.935C79.376 211.825 78.8948 208.114 78.133 202.969C76.1283 189.472 76.9703 173.475 88.3573 164.43C91.7252 161.753 93.6095 164.904 91.5245 168.815C88.4372 174.647 88.5176 179.884 89.1592 185.329C89.2794 186.368 91.2439 180.62 94.8124 173.881C98.5012 166.925 102.27 161.598 109.728 152.077C115.702 144.448 123.2 139.72 127.931 126.382C134.988 106.523 153.552 91.4673 168.186 82.7036C174.12 79.1375 172.036 90.7624 170.672 93.8355C168.908 97.6955 164.017 103.323 174.481 95.9612C178.972 92.821 183.062 86.9088 192.484 74.9644C199.341 66.2384 221.152 44.3854 251.865 47.1088C270.188 48.7351 259.844 53.3916 254.591 57.1271C247.174 62.3837 246.212 63.0826 243.645 66.5676C271.672 61.2954 283.099 41.3207 287.951 24.67C290.476 15.9697 308.158 30.5059 319.545 40.0408C329.409 48.324 337.708 58.887 343.923 70.212C349.216 79.9328 350.339 82.1227 351.581 86.3018C354.388 81.4997 352.544 77.7043 353.305 75.5349C354.909 71.1281 361.084 79.9802 363.49 91.4312C364.973 98.3796 362.527 111.799 364.572 118.273C369.945 135.432 374.476 163.649 367.579 163.649C363.89 163.649 352.343 151.519 324.878 142.989C304.75 136.746 277.806 133.67 252.466 139.109C222.876 145.466 209.244 154.167 195.09 163.712C183.663 171.43 174.121 180.268 160.248 198.392C150.906 210.638 138.837 235.359 135.028 259.021C141.523 342.094 188.114 368.718 213.775 370.641C236.869 372.371 259.242 368.148 265.938 353.965C271.632 341.841 272.875 331.447 279.009 319.877C287.87 303.137 316.097 291.732 335.864 292.307C360.523 293.025 361.004 325.787 373.794 314.558C378.204 310.71 386.143 297.685 392.078 282.491C398.413 266.357 397.61 259.133 399.455 257.134C403.144 253.112 409.519 271.924 411.403 284.797C415.493 312.912 406.792 347.457 397.771 363.25C385.943 383.949 342.881 442.625 257.759 439.98C183.864 437.687 123.44 389.477 101.829 354.759C93.6096 341.548 111.652 333.643 99.9445 308.933C96.5364 301.701 88.678 298.602 81.5411 295.025ZM284.302 349.685C285.826 341.548 293.243 326.084 298.856 321.334C305.753 315.485 324.597 305.972 337.588 307.131C346.369 307.916 358.718 326.204 358.117 334.281C357.355 344.041 351.581 359.4 337.749 368.778C336.947 369.348 338.31 358.352 335.102 354.828C332.656 352.134 322.432 354.506 322.272 358.605C322.111 361.102 321.31 375.595 319.104 376.871C310.284 381.986 296.812 381.685 287.83 376.735C282.538 373.824 282.899 357.08 284.302 349.685Z" fill="url(#paint2_linear_401_506)"/>
<defs>
<linearGradient id="paint0_linear_401_506" x1="90.4683" y1="432.174" x2="525.462" y2="243.171" gradientUnits="userSpaceOnUse">
<stop stop-color="#FF0844"/>
<stop offset="1" stop-color="#FFB199"/>
</linearGradient>
<linearGradient id="paint1_linear_401_506" x1="83.4864" y1="415.681" x2="484.019" y2="232.966" gradientUnits="userSpaceOnUse">
<stop stop-color="#FF0844"/>
<stop offset="1" stop-color="#FFB199"/>
</linearGradient>
<linearGradient id="paint2_linear_401_506" x1="67" y1="440.066" x2="477.569" y2="100.819" gradientUnits="userSpaceOnUse">
<stop stop-color="#FF0844"/>
<stop offset="1" stop-color="#FFB199"/>
</linearGradient>
</defs>
</svg>
