<svg width="64" height="64" viewBox="0 0 64 64" fill="none" xmlns="http://www.w3.org/2000/svg">
<path d="M40.3973 29.113L34.7072 38.1573C34.4744 38.4799 34.1913 38.7631 33.8687 38.9959C33.0898 39.5392 32.1281 39.7535 31.1922 39.5921C30.2563 39.4308 29.4218 38.9069 28.8699 38.1341C28.3179 37.3614 28.0929 36.4021 28.2438 35.4645C28.3948 34.5269 28.9094 33.6866 29.6759 33.1261L38.7202 27.436C38.9258 27.2927 39.1704 27.2158 39.421 27.2158C39.6716 27.2158 39.9162 27.2927 40.1218 27.436C40.38 27.6224 40.5539 27.9034 40.6055 28.2177C40.6571 28.5319 40.5823 28.8538 40.3973 29.113Z" fill="#6B42DF"/>
<path d="M32.0001 9C17.1819 9 5.16677 21.0031 5.16677 35.8213C5.15768 42.3774 7.55786 48.7082 11.911 53.6104C12.0428 53.7542 12.1626 53.8979 12.2944 54.0297C12.5779 54.3366 12.922 54.5813 13.3049 54.7482C13.6879 54.9152 14.1014 55.0009 14.5191 54.9997C14.9369 54.9986 15.3499 54.9107 15.732 54.7417C16.114 54.5727 16.4568 54.3261 16.7386 54.0177C18.6811 51.9068 21.0403 50.2218 23.6672 49.0692C26.2941 47.9166 29.1315 47.3215 32.0001 47.3215C34.8687 47.3215 37.7061 47.9166 40.333 49.0692C42.9599 50.2218 45.3191 51.9068 47.2616 54.0177C47.5434 54.3261 47.8862 54.5727 48.2682 54.7417C48.6503 54.9107 49.0633 54.9986 49.4811 54.9997C49.8988 55.0009 50.3123 54.9152 50.6953 54.7482C51.0782 54.5813 51.4224 54.3366 51.7058 54.0297L52.0892 53.6104C56.4423 48.7082 58.8425 42.3774 58.8334 35.8213C58.8334 21.0031 46.8183 9 32.0001 9Z" stroke="#6B42DF" stroke-width="5" stroke-linecap="round" stroke-linejoin="round"/>
<path d="M32.0002 16.6667V20.5M51.1668 35.8333H47.3335M16.6668 35.8333H12.8335M21.1578 24.991L18.4469 22.2801M42.8425 24.991L45.5534 22.2801" stroke="#6B42DF" stroke-width="4" stroke-miterlimit="10" stroke-linecap="round"/>
</svg>
