<svg width="64" height="65" viewBox="0 0 64 65" fill="none" xmlns="http://www.w3.org/2000/svg">
<path d="M34.6667 56.9468H10.6667C9.25219 56.9468 7.89563 56.3849 6.89544 55.3847C5.89525 54.3845 5.33334 53.0279 5.33334 51.6134V14.2801C5.33334 12.8656 5.89525 11.5091 6.89544 10.5089C7.89563 9.50868 9.25219 8.94678 10.6667 8.94678H53.3333C54.7478 8.94678 56.1044 9.50868 57.1046 10.5089C58.1048 11.5091 58.6667 12.8656 58.6667 14.2801V35.6134" stroke="#FF0844" stroke-width="5" stroke-linecap="round"/>
<path d="M58.6667 47.0268C58.6664 48.6314 58.0318 50.1708 56.9013 51.3094C54.2987 53.9334 51.7733 56.6694 49.072 59.1974C48.7703 59.473 48.3741 59.622 47.9656 59.6135C47.5571 59.6051 47.1674 59.4399 46.8773 59.1521L39.096 51.3121C37.9649 50.1727 37.3301 48.6323 37.3301 47.0268C37.3301 45.4213 37.9649 43.8809 39.096 42.7414C39.6605 42.1725 40.332 41.7209 41.0718 41.4127C41.8117 41.1045 42.6052 40.9458 43.4067 40.9458C44.2081 40.9458 45.0017 41.1045 45.7415 41.4127C46.4814 41.7209 47.1529 42.1725 47.7173 42.7414L48 43.0268L48.2827 42.7414C49.1304 41.8864 50.2132 41.3027 51.3934 41.0645C52.5736 40.8263 53.798 40.9443 54.911 41.4036C56.024 41.863 56.9753 42.6428 57.644 43.644C58.3128 44.6453 58.6687 45.8227 58.6667 47.0268Z" stroke="#FF0844" stroke-width="5" stroke-linejoin="round"/>
<path d="M5.33334 19.6135H58.6667M13.3333 14.3068L13.36 14.2775M21.3333 14.3068L21.36 14.2775M29.3333 14.3068L29.36 14.2775" stroke="#FF0844" stroke-width="5" stroke-linecap="round" stroke-linejoin="round"/>
</svg>
