<svg width="64" height="64" viewBox="0 0 64 64" fill="none" xmlns="http://www.w3.org/2000/svg">
<path d="M13.3333 58.6666C11.8667 58.6666 10.6107 58.144 9.56534 57.0986C8.52 56.0533 7.99823 54.7982 8 53.3333V16C8 14.5333 8.52267 13.2773 9.568 12.232C10.6133 11.1866 11.8684 10.6649 13.3333 10.6666H16V5.33331H21.3333V10.6666H42.6667V5.33331H48V10.6666H50.6667C52.1333 10.6666 53.3893 11.1893 54.4347 12.2346C55.48 13.28 56.0018 14.5351 56 16V29.3333H50.6667V26.6666H13.3333V53.3333H32V58.6666H13.3333ZM13.3333 21.3333H50.6667V16H13.3333V21.3333ZM37.3333 58.6666V50.4666L52.0667 35.8C52.4667 35.4 52.9111 35.1111 53.4 34.9333C53.8889 34.7555 54.3778 34.6666 54.8667 34.6666C55.4 34.6666 55.9111 34.7671 56.4 34.968C56.8889 35.1689 57.3333 35.4684 57.7333 35.8666L60.2 38.3333C60.5556 38.7333 60.8338 39.1778 61.0347 39.6666C61.2356 40.1555 61.3351 40.6444 61.3333 41.1333C61.3333 41.6222 61.2445 42.1226 61.0667 42.6346C60.8889 43.1466 60.6 43.6018 60.2 44L45.5333 58.6666H37.3333ZM41.3333 54.6666H43.8667L51.9333 46.5333L50.7333 45.2666L49.4667 44.0666L41.3333 52.1333V54.6666ZM50.7333 45.2666L49.4667 44.0666L51.9333 46.5333L50.7333 45.2666Z" fill="#6B42DF"/>
</svg>
