<svg width="80" height="80" viewBox="0 0 80 80" fill="none" xmlns="http://www.w3.org/2000/svg">
<g clip-path="url(#clip0_794_180)">
<path d="M55 57.5L64.5333 63.1333L62.0333 67.2L50 60V43.3333H55V57.5ZM76.6667 56.6666C76.6667 69.5666 66.2333 80 53.3333 80C46.9667 80 41.2333 77.4666 37.0333 73.3333H20C16.3 73.3333 13.3333 70.3666 13.3333 66.6666V13.3333C13.3333 11.5652 14.0357 9.86949 15.286 8.61925C16.5362 7.369 18.2319 6.66663 20 6.66663H23.3333V30L31.6667 25L40 30V6.66663H60C61.7681 6.66663 63.4638 7.369 64.7141 8.61925C65.9643 9.86949 66.6667 11.5652 66.6667 13.3333V37.5333C72.7 41.7666 76.6667 48.7333 76.6667 56.6666ZM70 56.6666C70 47.4666 62.5333 40 53.3333 40C44.1333 40 36.6667 47.4666 36.6667 56.6666C36.6667 65.8666 44.1333 73.3333 53.3333 73.3333C62.5333 73.3333 70 65.8666 70 56.6666Z" fill="url(#paint0_linear_794_180)"/>
</g>
<defs>
<linearGradient id="paint0_linear_794_180" x1="45" y1="6.66663" x2="45" y2="80" gradientUnits="userSpaceOnUse">
<stop stop-color="#987AEF"/>
<stop offset="1" stop-color="#6B42DF"/>
</linearGradient>
<clipPath id="clip0_794_180">
<rect width="80" height="80" fill="white"/>
</clipPath>
</defs>
</svg>
