<svg width="64" height="65" viewBox="0 0 64 65" fill="none" xmlns="http://www.w3.org/2000/svg">
<path d="M32 6.28009C17.272 6.28009 5.33334 18.2188 5.33334 32.9468C5.33334 47.6748 17.272 59.6134 32 59.6134C46.728 59.6134 58.6667 47.6748 58.6667 32.9468C58.6667 18.2188 46.728 6.28009 32 6.28009Z" stroke="#FF0844" stroke-width="5" stroke-linecap="round" stroke-linejoin="round"/>
<path d="M21.3333 57.3947V38.2801L32 19.6134L42.6667 38.2801V57.3947" stroke="#FF0844" stroke-width="5" stroke-linecap="round" stroke-linejoin="round"/>
<path d="M21.3333 38.2801C21.3333 38.2801 24.3387 40.9468 26.6667 40.9468C28.9947 40.9468 32 38.2801 32 38.2801C32 38.2801 35.0053 40.9468 37.3333 40.9468C39.6613 40.9468 42.6667 38.2801 42.6667 38.2801" stroke="#FF0844" stroke-width="5" stroke-linecap="round" stroke-linejoin="round"/>
</svg>
